HIERARCHY
ROOT joint_Root
{
	OFFSET 0.0 0.0 0.0
	CHANNELS 6 Xposition Yposition Zposition Zrotation Xrotation Yrotation 
	JOINT Hips
	{
		OFFSET -17.1583 93.1646 452.98
		CHANNELS 6 Xposition Yposition Zposition Zrotation Xrotation Yrotation 
		JOINT Spine
		{
			OFFSET 15.7357 0.0 0.0
			CHANNELS 6 Xposition Yposition Zposition Zrotation Xrotation Yrotation 
			JOINT Chest
			{
				OFFSET 8.98455 -0.406207 0.0
				CHANNELS 6 Xposition Yposition Zposition Zrotation Xrotation Yrotation 
				JOINT Neck
				{
					OFFSET 16.3773 0.0 0.0
					CHANNELS 6 Xposition Yposition Zposition Zrotation Xrotation Yrotation 
					JOINT Head
					{
						OFFSET 6.45672 0.0 0.0
						CHANNELS 6 Xposition Yposition Zposition Zrotation Xrotation Yrotation 
						End Site
						{
							OFFSET 0.0 0.0 0.0
						}
					}
				}
				JOINT Shoulder_L
				{
					OFFSET 12.9942 -0.242716 4.98039
					CHANNELS 6 Xposition Yposition Zposition Zrotation Xrotation Yrotation 
					JOINT UpperArm_L
					{
						OFFSET 5.34809 0.0 0.0
						CHANNELS 6 Xposition Yposition Zposition Zrotation Xrotation Yrotation 
						JOINT LowerArm_L
						{
							OFFSET 24.3286 1.87007e-05 0.0
							CHANNELS 6 Xposition Yposition Zposition Zrotation Xrotation Yrotation 
							JOINT Hand_L
							{
								OFFSET 22.2916 0.0 0.0
								CHANNELS 6 Xposition Yposition Zposition Zrotation Xrotation Yrotation 
								End Site
								{
									OFFSET 0.0 0.0 0.0
								}
							}
						}
					}
				}
				JOINT Shoulder_R
				{
					OFFSET 12.9945 -0.242716 -4.98039
					CHANNELS 6 Xposition Yposition Zposition Zrotation Xrotation Yrotation 
					JOINT UpperArm_R
					{
						OFFSET -5.34813 0.0 0.0
						CHANNELS 6 Xposition Yposition Zposition Zrotation Xrotation Yrotation 
						JOINT LowerArm_R
						{
							OFFSET -24.3289 0.000322201 0.0
							CHANNELS 6 Xposition Yposition Zposition Zrotation Xrotation Yrotation 
							JOINT Hand_R
							{
								OFFSET -22.2915 -0.000108084 0.0
								CHANNELS 6 Xposition Yposition Zposition Zrotation Xrotation Yrotation 
								End Site
								{
									OFFSET 0.0 0.0 0.0
								}
							}
						}
					}
				}
			}
		}
		JOINT UpperLeg_L
		{
			OFFSET -2.19248 -6.46944 0.0
			CHANNELS 6 Xposition Yposition Zposition Zrotation Xrotation Yrotation 
			JOINT LowerLeg_L
			{
				OFFSET 39.0811 0.0 -1.23785e-05
				CHANNELS 6 Xposition Yposition Zposition Zrotation Xrotation Yrotation 
				JOINT Foot_L
				{
					OFFSET 40.9854 0.0 -1.26872e-05
					CHANNELS 6 Xposition Yposition Zposition Zrotation Xrotation Yrotation 
					JOINT Toes_L
					{
						OFFSET 11.7543 0.0 0.0
						CHANNELS 6 Xposition Yposition Zposition Zrotation Xrotation Yrotation 
						End Site
						{
							OFFSET 0.0 0.0 0.0
						}
					}
				}
			}
		}
		JOINT UpperLeg_R
		{
			OFFSET -2.19251 6.46944 0.0
			CHANNELS 6 Xposition Yposition Zposition Zrotation Xrotation Yrotation 
			JOINT LowerLeg_R
			{
				OFFSET -39.0811 -0.00228153 -0.0401928
				CHANNELS 6 Xposition Yposition Zposition Zrotation Xrotation Yrotation 
				JOINT Foot_R
				{
					OFFSET -40.9854 0.0 0.0
					CHANNELS 6 Xposition Yposition Zposition Zrotation Xrotation Yrotation 
					JOINT Toes_R
					{
						OFFSET -11.7543 0.0 0.0
						CHANNELS 6 Xposition Yposition Zposition Zrotation Xrotation Yrotation 
						End Site
						{
							OFFSET 0.0 0.0 0.0
						}
					}
				}
			}
		}
	}
}
MOTION
Frames:	4
Frame Time:	0.0333333
0.000000 0.000000 0.000000 0.000000 0.000000 -0.000000 -149.513000 88.981100 248.053000 4.909150 84.817700 82.223800 15.735700 0.000005 -0.000001 41.139900 87.978200 -37.397600 8.984550 -0.406207 -0.000000 -4.986390 -3.458120 7.342040 16.377300 -0.000001 -0.000001 6.149020 4.760040 -4.069560 6.456720 -0.000001 -0.000000 11.595700 7.473020 -1.241210 12.994200 -0.242716 4.980390 -93.132700 9.022360 -70.760800 5.348090 -0.000007 -0.000001 -74.553600 -5.424440 -3.477020 24.328600 0.000019 0.000005 37.661800 31.456500 -55.934600 22.291600 -0.000001 0.000005 50.635200 4.360520 18.843600 12.994500 -0.242716 -4.980390 88.845500 3.291870 -70.661900 -5.348130 -0.000001 -0.000004 -65.502000 -3.429950 5.278050 -24.328900 0.000322 -0.000009 0.129574 1.947080 -3.841810 -22.291500 -0.000108 -0.000004 42.331500 5.264120 1.056250 -2.192480 -6.469440 -0.000000 -174.410000 -7.656440 0.226561 39.081100 -0.000007 -0.000012 0.012814 -0.012547 45.597200 40.985400 -0.000006 -0.000013 2.788720 12.871100 -39.947800 11.754300 -0.000000 0.000003 -0.093216 -0.427418 -34.384100 -2.192510 6.469440 -0.000001 -171.052000 -9.764110 151.495000 -39.081100 -0.002282 -0.040193 0.283201 -0.397370 35.161600 -40.985400 0.000008 0.000006 3.027330 -11.381500 -66.110500 -11.754300 -0.000006 -0.000006 -0.009432 0.267012 -5.726540
0.000000 0.000000 0.000000 0.000000 0.000000 -0.000000 -145.528000 88.927700 248.322000 -8.187250 84.247300 96.652400 15.735700 0.000005 -0.000001 52.372400 87.765000 -48.479000 8.984550 -0.406207 -0.000000 -4.110540 -3.130150 7.680070 16.377300 -0.000001 -0.000001 5.801820 4.203100 -3.549130 6.456720 -0.000001 -0.000000 11.225800 6.719590 -1.288430 12.994200 -0.242716 4.980390 -93.228300 9.323090 -70.803500 5.348090 -0.000007 -0.000001 -74.538400 -3.733320 -1.747600 24.328600 0.000019 0.000005 33.791400 37.137000 -47.948500 22.291600 -0.000001 0.000005 49.797000 4.452430 17.376600 12.994500 -0.242716 -4.980390 88.673700 3.736580 -70.442300 -5.348130 -0.000001 -0.000004 -67.143600 -0.116544 1.744650 -24.328900 0.000322 -0.000009 0.102739 1.142210 -5.197700 -22.291500 -0.000108 -0.000004 42.056000 5.284020 0.515706 -2.192480 -6.469440 -0.000000 -172.978000 -6.248200 -5.848980 39.081100 -0.000007 -0.000012 0.182142 -0.124610 55.621800 40.985400 -0.000006 -0.000013 -6.586970 6.957840 -27.796300 11.754300 -0.000000 0.000003 0.002052 0.048750 -14.599300 -2.192510 6.469440 -0.000001 -169.562000 -7.862850 154.860000 -39.081100 -0.002282 -0.040193 0.357773 -0.471360 36.945700 -40.985400 0.000008 0.000006 3.035380 -11.095700 -69.661900 -11.754300 -0.000006 -0.000006 -0.009208 0.265287 -5.797040
0.000000 0.000000 0.000000 0.000000 0.000000 -0.000000 -141.810000 89.194300 248.519000 -17.040300 83.856800 106.574000 15.735700 0.000005 -0.000001 63.826400 87.552700 -60.048500 8.984550 -0.406207 -0.000000 -3.280450 -2.521690 7.486280 16.377300 -0.000001 -0.000001 5.386550 3.674100 -2.774860 6.456720 -0.000001 -0.000000 10.668300 5.915110 -0.809436 12.994200 -0.242716 4.980390 -93.120500 9.029960 -70.845400 5.348090 -0.000007 -0.000001 -74.073300 -3.743460 -0.379211 24.328600 0.000019 0.000005 26.990200 40.458100 -38.122700 22.291600 -0.000001 0.000005 47.673800 4.550580 15.746500 12.994500 -0.242716 -4.980390 88.591900 3.937670 -70.305100 -5.348130 -0.000001 -0.000004 -68.672000 3.230050 -2.014950 -24.328900 0.000322 -0.000009 0.085496 0.750209 -6.584340 -22.291500 -0.000108 -0.000004 41.781100 5.296890 0.159346 -2.192480 -6.469440 -0.000000 -172.595000 -4.852610 -11.526900 39.081100 -0.000007 -0.000012 0.255133 -0.123558 64.158800 40.985400 -0.000006 -0.000013 -7.981120 2.712080 -29.853300 11.754300 -0.000000 0.000003 0.001850 0.041388 -14.897900 -2.192510 6.469440 -0.000001 -168.742000 -6.001840 158.879000 -39.081100 -0.002282 -0.040193 0.352461 -0.470777 36.564800 -40.985400 0.000008 0.000006 2.795320 -10.472300 -72.105000 -11.754300 -0.000006 -0.000006 -0.008669 0.261074 -5.969250
0.000000 0.000000 0.000000 0.000000 0.000000 -0.000000 -138.250000 89.682900 248.497000 -22.239300 84.555800 112.783000 15.735700 0.000005 -0.000001 74.098100 87.289300 -70.861700 8.984550 -0.406207 -0.000000 -2.494220 -1.774460 6.434630 16.377300 -0.000001 -0.000001 5.160040 3.405410 -1.932700 6.456720 -0.000001 -0.000000 10.206900 5.442180 -0.210307 12.994200 -0.242716 4.980390 -92.973200 8.553370 -70.749900 5.348090 -0.000007 -0.000001 -72.471400 -5.701380 2.028490 24.328600 0.000019 0.000005 19.867000 38.854300 -29.939500 22.291600 -0.000001 0.000005 44.769800 4.577230 15.303900 12.994500 -0.242716 -4.980390 88.633100 3.827940 -70.332200 -5.348130 -0.000001 -0.000004 -69.865500 7.033710 -5.868670 -24.328900 0.000322 -0.000009 -0.008189 -0.049876 -8.104240 -22.291500 -0.000108 -0.000004 41.883400 5.303920 -0.037772 -2.192480 -6.469440 -0.000000 -173.925000 -3.219850 -16.197700 39.081100 -0.000007 -0.000012 0.176165 -0.067395 69.063200 40.985400 -0.000006 -0.000013 -6.670820 3.597490 -35.678500 11.754300 -0.000000 0.000003 0.001955 0.045013 -14.750900 -2.192510 6.469440 -0.000001 -169.384000 -3.760850 163.283000 -39.081100 -0.002282 -0.040193 0.275160 -0.387017 35.087400 -40.985400 0.000008 0.000006 2.018690 -8.555230 -73.805800 -11.754300 -0.000006 -0.000006 -0.007923 0.255070 -6.214520
